# xmcd
#
# Track frame offsets:
#	183
#	19783
#	38058
#	61445
#	82208
#	104095
#	127683
#	143558
#	160433
#	181808
#
# Disc length: 2712 seconds
# Revision: 1
# Processed by: cddbd v1.5.2PL0 Copyright (c) Steve Scherf et al.
# Submitted via: dBpowerAMP V12.0
#
DISCID=820a960a
DTITLE=Chris Daniels and The Kings - In Your Face
DYEAR=1992
DGENRE=Blues
TTITLE0=Bad Things
TTITLE1=In Your Face
TTITLE2=An American Tragedy
TTITLE3=What Kind of Man
TTITLE4=Better off With the Blues
TTITLE5=Can't Cheat the Hangman
TTITLE6=Let Me in This House
TTITLE7=Every Time I See Her
TTITLE8=All I Want to Feel
TTITLE9=Black Cat
EXTD=
EXTT0=
EXTT1=
EXTT2=
EXTT3=
EXTT4=
EXTT5=
EXTT6=
EXTT7=
EXTT8=
EXTT9=
PLAYORDER=
